<svg width="1440" height="1269" viewBox="0 0 1440 1269" fill="none" xmlns="http://www.w3.org/2000/svg">
<path d="M1795.07 125.533C1740.17 245.319 1683.03 364.274 1613.64 466.985C1547.21 565.153 1462.1 651.019 1379.83 686.612C1319.4 712.727 1261.08 711.691 1213.05 669.43C1171.89 633.178 1145.09 569.473 1138.21 493.374C1132.98 435.217 1139.13 371.597 1145.18 308.471C1147.7 281.743 1150.13 254.909 1151.83 228.234C1154.11 192.067 1154.64 156.2 1150.92 122.596C1145.14 71.8284 1125.37 5.41775 1087.13 1.62121C1050.73 -1.76894 1004.25 42.6938 974.989 88.7456C956.294 118.056 941.134 150.778 927.3 183.977C915.823 211.696 905.268 239.468 894.825 266.744C871.477 326.973 846.701 386.618 811.292 432.016C804.25 441.138 796.71 449.429 788.771 456.996C749.599 494.458 703.699 511.68 667.658 499.787C641.11 491.146 618.467 470.696 596.138 449.963C595.331 449.115 594.419 448.461 593.713 447.719C567.643 423.663 539.38 389.956 502.262 398.356C469.888 405.625 436.988 436.828 411.714 478.195C398.602 499.604 387.612 522.938 378.352 547.175C368.445 573.179 360.369 600.19 353.63 627.078C341.59 675.019 333.45 723.084 326.037 770.689C317.138 826.832 309.072 882.322 296.899 937.776C274.554 1040.08 233.488 1149.92 167.996 1212.35C139.899 1239.12 109.222 1254.9 79.31 1262.31C67.7579 1265.16 56.4341 1266.72 45.3384 1266.98C-75.5098 1271.49 -166.833 1139.31 -166.839 959.32" stroke="#FF6DD6" stroke-width="2" stroke-miterlimit="10"/>
</svg>
